
<?xml version="1.0" encoding="UTF-8"?>
<svg xmlns="http://www.w3.org/2000/svg" xmlns:xlink="http://www.w3.org/1999/xlink" width="112pt" height="56pt" viewBox="0 0 112 56" version="1.1">
<g id="surface1">
<path style=" stroke:none;fill-rule:nonzero;fill:rgb(100%,100%,100%);fill-opacity:1;" d="M 11.609375 46.140625 L 11.3125 44.890625 C 10.984375 45.109375 10.691406 45.320312 10.441406 45.507812 C 11.070312 45.917969 11.609375 46.140625 11.609375 46.140625 Z M 11.609375 46.140625 "/>
<path style=" stroke:none;fill-rule:nonzero;fill:rgb(100%,100%,100%);fill-opacity:1;" d="M 11.148438 44.214844 C 10.941406 44.382812 10.773438 44.542969 10.773438 44.542969 Z M 11.148438 44.214844 "/>
<path style=" stroke:none;fill-rule:nonzero;fill:rgb(100%,100%,100%);fill-opacity:1;" d="M 11.007812 49.101562 C 11.382812 49.171875 11.832031 49.25 12.234375 49.3125 C 12.292969 49.320312 12.351562 49.332031 12.414062 49.339844 C 12.425781 49.339844 12.433594 49.34375 12.445312 49.34375 C 12.988281 49.417969 14.175781 49.480469 16.507812 49.347656 C 23.460938 48.695312 23.578125 44.757812 21.816406 43.339844 C 21.8125 43.328125 21.804688 43.320312 21.785156 43.3125 C 21.640625 43.199219 21.484375 43.101562 21.316406 43.027344 C 20.78125 42.78125 20.261719 42.628906 19.765625 42.539062 C 18.042969 42.359375 16.46875 42.605469 15.09375 43.042969 C 15.21875 43.59375 15.414062 44.382812 15.574219 45.039062 C 16.21875 44.8125 16.902344 44.640625 17.632812 44.539062 C 19.808594 44.242188 21.0625 45.75 17.957031 46.824219 C 17.390625 47.019531 15.027344 47.65625 12.171875 46.980469 C 12.171875 46.980469 10.773438 46.605469 9.789062 46.015625 C 9.785156 46.019531 9.78125 46.019531 9.777344 46.023438 C 9.644531 45.9375 9.519531 45.847656 9.398438 45.75 C 9.375 45.730469 9.355469 45.714844 9.332031 45.695312 C 9.292969 45.664062 9.257812 45.632812 9.222656 45.597656 C 9.210938 45.589844 9.199219 45.582031 9.1875 45.570312 C 9.164062 45.546875 9.148438 45.527344 9.125 45.503906 C 9.078125 45.457031 9.03125 45.40625 8.988281 45.355469 C 8.972656 45.335938 8.957031 45.3125 8.941406 45.296875 C 8.671875 44.953125 8.503906 44.550781 8.519531 44.078125 C 8.558594 42.882812 9.429688 41.613281 10.671875 40.617188 L 10.554688 39.558594 C 10.554688 39.558594 8.898438 39.175781 8.0625 38.765625 C 6.445312 39.714844 5.472656 41.433594 5.472656 41.433594 C 4.625 43.027344 4.582031 45.445312 6.988281 47.453125 C 7.585938 47.902344 8.542969 48.597656 11.007812 49.101562 Z M 11.007812 49.101562 "/>
<path style=" stroke:none;fill-rule:nonzero;fill:rgb(100%,100%,100%);fill-opacity:1;" d="M 30.160156 54.902344 C 26.761719 49.785156 12.8125 53.234375 9.675781 50.800781 C 9.675781 50.800781 9.246094 50.457031 9.398438 49.945312 C 9.496094 49.75 9.582031 49.613281 9.671875 49.503906 C 9.109375 49.371094 8.199219 49.09375 7.289062 48.527344 C 7.105469 48.820312 6.945312 49.121094 6.824219 49.433594 C 6.296875 50.816406 7.40625 52.035156 7.40625 52.035156 C 11.582031 56.292969 25.03125 50.859375 28.660156 55.355469 C 29.640625 56.570312 30.597656 55.765625 30.160156 54.902344 Z M 30.160156 54.902344 "/>
<path style=" stroke:none;fill-rule:nonzero;fill:rgb(100%,100%,100%);fill-opacity:1;" d="M 4.730469 16.757812 C 5.1875 16.140625 5.839844 15.335938 6.636719 14.570312 C 5.054688 13.492188 3.910156 12.136719 3.191406 10.257812 C 2.09375 7.367188 3.703125 3.609375 5.882812 2.746094 C 8.703125 1.632812 11.484375 3.511719 12.191406 5.667969 C 12.011719 7.027344 10.902344 8.191406 11.085938 9.636719 C 11.261719 11.042969 14.417969 14.28125 15.550781 13.988281 C 16.742188 13.679688 17.789062 9.273438 17.273438 7.878906 C 16.609375 6.074219 15.136719 6.558594 14.316406 5.09375 C 13.898438 4.347656 13.925781 4.128906 13.585938 3.523438 C 12.621094 1.808594 11.03125 0.359375 8.699219 0.167969 C 3.269531 -0.28125 0.0078125 3.855469 0 7.921875 C -0.0078125 11.628906 2.066406 14.65625 4.730469 16.757812 Z M 4.730469 16.757812 "/>
<path style=" stroke:none;fill-rule:nonzero;fill:rgb(100%,100%,100%);fill-opacity:1;" d="M 15.007812 54.476562 C 15.121094 54.757812 15.230469 55.039062 15.34375 55.320312 C 16.074219 56.355469 17.453125 55.835938 18.710938 55.0625 C 18.574219 54.796875 18.433594 54.511719 18.289062 54.222656 Z M 15.007812 54.476562 "/>
<path style=" stroke:none;fill-rule:nonzero;fill:rgb(100%,100%,100%);fill-opacity:1;" d="M 13.417969 50.011719 C 13.535156 50.382812 13.652344 50.75 13.777344 51.117188 C 14.503906 51.1875 15.917969 51.195312 16.917969 51.1875 C 16.761719 50.808594 16.605469 50.421875 16.449219 50.019531 C 15.921875 50.089844 14.988281 50.140625 13.417969 50.011719 Z M 13.417969 50.011719 "/>
<path style=" stroke:none;fill-rule:nonzero;fill:rgb(100%,100%,100%);fill-opacity:1;" d="M 12.425781 46.375 C 12.703125 46.441406 14.355469 46.679688 15.285156 46.597656 C 14.605469 44.335938 14.039062 41.835938 13.722656 39.140625 C 16.351562 39.277344 21.691406 38.570312 25.5625 34.226562 C 31.152344 27.964844 28.28125 15.960938 27.453125 10.613281 C 27.097656 8.300781 27.421875 5.441406 28.085938 2.894531 C 28.308594 2.199219 28.433594 1.703125 28.441406 1.664062 C 28.816406 0.648438 29.113281 0.0273438 29.113281 0.0273438 C 29.113281 0.0273438 28.945312 0.113281 28.644531 0.296875 C 28.648438 0.292969 28.65625 0.292969 28.660156 0.289062 C 28.65625 0.292969 28.652344 0.296875 28.648438 0.300781 C 28.644531 0.296875 28.644531 0.296875 28.644531 0.296875 C 28.152344 0.542969 23.09375 2.941406 17.453125 6.695312 C 17.980469 7.28125 18.128906 7.921875 18.132812 8.453125 C 19.507812 7.597656 20.949219 6.765625 22.257812 5.992188 C 21.429688 6.972656 20.578125 8.089844 19.734375 9.359375 C 13.199219 19.199219 10.96875 28.398438 11.164062 36.789062 C 10.160156 36.640625 8.121094 36.171875 6.535156 34.6875 C 1.066406 29.5625 2.425781 21.003906 12.15625 12.777344 C 11.800781 12.417969 11.410156 11.964844 11.082031 11.449219 C 6.453125 15.367188 2.472656 20.035156 1.507812 24.984375 C -0.589844 35.757812 8.316406 38.378906 11.265625 38.949219 C 11.453125 41.507812 11.859375 43.980469 12.425781 46.375 Z M 24.964844 6.125 C 24.800781 7.820312 24.960938 10.75 25.558594 14.578125 C 26.179688 18.566406 28.210938 27.085938 22.496094 33.601562 C 19.878906 36.585938 15.097656 36.800781 13.519531 36.90625 C 12.953125 27.914062 15.308594 17.089844 24.964844 6.125 Z M 24.964844 6.125 "/>
<path style=" stroke:none;fill-rule:nonzero;fill:rgb(100%,100%,100%);fill-opacity:1;" d="M 42.902344 28.101562 L 39.449219 23.402344 L 38.632812 23.402344 L 38.632812 28.101562 L 36.324219 28.101562 L 36.324219 17.039062 L 38.632812 17.039062 L 38.632812 21.386719 L 39.417969 21.386719 L 42.902344 17.039062 L 45.71875 17.039062 L 41.410156 22.328125 L 45.851562 28.101562 Z M 54.894531 17.039062 L 57.203125 17.039062 L 57.203125 28.101562 L 54.894531 28.101562 L 54.894531 23.554688 L 50.191406 23.554688 L 50.191406 28.101562 L 47.882812 28.101562 L 47.882812 17.039062 L 50.191406 17.039062 L 50.191406 21.554688 L 54.894531 21.554688 Z M 65.382812 28.253906 C 62.113281 28.253906 59.695312 26.035156 59.695312 22.566406 C 59.695312 19.089844 62.113281 16.886719 65.382812 16.886719 C 68.648438 16.886719 71.0625 19.089844 71.0625 22.566406 C 71.0625 26.035156 68.648438 28.253906 65.382812 28.253906 Z M 65.382812 26.148438 C 67.300781 26.148438 68.769531 24.808594 68.769531 22.566406 C 68.769531 20.332031 67.300781 19 65.382812 19 C 63.46875 19 62 20.332031 62 22.566406 C 62 24.808594 63.46875 26.148438 65.382812 26.148438 Z M 80.015625 19.0625 L 75.890625 19.0625 L 75.890625 21.570312 L 79.542969 21.570312 L 79.542969 23.570312 L 75.890625 23.570312 L 75.890625 26.070312 L 80.015625 26.070312 L 80.015625 28.101562 L 73.566406 28.101562 L 73.566406 17.039062 L 80.015625 17.039062 Z M 82.769531 28.101562 L 82.769531 17.039062 L 86.796875 17.039062 C 90.34375 17.039062 92.097656 19.261719 92.097656 22.566406 C 92.097656 25.878906 90.34375 28.101562 86.796875 28.101562 Z M 85.078125 26.070312 L 86.679688 26.070312 C 88.726562 26.070312 89.664062 24.800781 89.664062 22.566406 C 89.664062 20.332031 88.726562 19.0625 86.679688 19.0625 L 85.078125 19.0625 Z M 101.085938 19.0625 L 96.960938 19.0625 L 96.960938 21.570312 L 100.617188 21.570312 L 100.617188 23.570312 L 96.960938 23.570312 L 96.960938 26.070312 L 101.085938 26.070312 L 101.085938 28.101562 L 94.636719 28.101562 L 94.636719 17.039062 L 101.085938 17.039062 Z M 108.46875 17.039062 C 110.644531 17.039062 112 18.648438 112 20.613281 C 112 22.628906 110.644531 24.136719 108.46875 24.136719 L 106.152344 24.136719 L 106.152344 28.097656 L 103.84375 28.097656 L 103.84375 17.039062 Z M 108.082031 22.214844 C 109.238281 22.214844 109.777344 21.578125 109.777344 20.582031 C 109.777344 19.628906 109.238281 18.960938 108.082031 18.960938 L 106.152344 18.960938 L 106.152344 22.214844 Z M 108.082031 22.214844 "/>
<path style=" stroke:none;fill-rule:nonzero;fill:rgb(100%,100%,100%);fill-opacity:1;" d="M 39.6875 34.417969 L 39.6875 35.3125 L 38.515625 35.3125 L 38.515625 39.324219 L 37.503906 39.324219 L 37.503906 35.3125 L 36.324219 35.3125 L 36.324219 34.417969 Z M 42.648438 39.390625 C 41.195312 39.390625 40.125 38.40625 40.125 36.867188 C 40.125 35.328125 41.195312 34.351562 42.648438 34.351562 C 44.09375 34.351562 45.164062 35.328125 45.164062 36.867188 C 45.164062 38.40625 44.09375 39.390625 42.648438 39.390625 Z M 42.648438 38.457031 C 43.496094 38.457031 44.148438 37.863281 44.148438 36.867188 C 44.148438 35.878906 43.496094 35.285156 42.648438 35.285156 C 41.796875 35.285156 41.144531 35.878906 41.144531 36.867188 C 41.144531 37.863281 41.796875 38.457031 42.648438 38.457031 Z M 48.160156 34.417969 C 49.125 34.417969 49.726562 35.128906 49.726562 36.003906 C 49.726562 36.894531 49.125 37.566406 48.160156 37.566406 L 47.132812 37.566406 L 47.132812 39.324219 L 46.109375 39.324219 L 46.109375 34.417969 Z M 47.988281 36.714844 C 48.5 36.714844 48.742188 36.429688 48.742188 35.988281 C 48.742188 35.566406 48.5 35.269531 47.988281 35.269531 L 47.132812 35.269531 L 47.132812 36.714844 Z M 51.609375 38.425781 L 53.15625 38.425781 L 53.15625 39.324219 L 50.585938 39.324219 L 50.585938 34.417969 L 51.609375 34.417969 Z M 53.941406 39.324219 L 53.941406 34.417969 L 54.964844 34.417969 L 54.964844 39.324219 Z M 57.875 39.390625 C 56.816406 39.390625 55.992188 38.886719 55.839844 37.964844 L 56.898438 37.726562 C 56.96875 38.273438 57.375 38.558594 57.917969 38.558594 C 58.332031 38.558594 58.664062 38.375 58.660156 37.960938 C 58.65625 37.5 58.109375 37.355469 57.511719 37.171875 C 56.785156 36.945312 56.011719 36.683594 56.011719 35.777344 C 56.011719 34.867188 56.761719 34.351562 57.753906 34.351562 C 58.621094 34.351562 59.492188 34.699219 59.691406 35.640625 L 58.703125 35.882812 C 58.609375 35.394531 58.277344 35.179688 57.8125 35.179688 C 57.402344 35.179688 57.050781 35.351562 57.050781 35.753906 C 57.050781 36.132812 57.535156 36.257812 58.09375 36.425781 C 58.839844 36.648438 59.71875 36.933594 59.71875 37.910156 C 59.71875 38.953125 58.839844 39.390625 57.875 39.390625 Z M 63.527344 34.417969 L 63.527344 35.3125 L 62.355469 35.3125 L 62.355469 39.324219 L 61.339844 39.324219 L 61.339844 35.3125 L 60.164062 35.3125 L 60.164062 34.417969 Z M 67.21875 39.324219 L 65.6875 37.238281 L 65.324219 37.238281 L 65.324219 39.324219 L 64.300781 39.324219 L 64.300781 34.417969 L 65.324219 34.417969 L 65.324219 36.347656 L 65.671875 36.347656 L 67.21875 34.417969 L 68.46875 34.417969 L 66.558594 36.765625 L 68.527344 39.324219 Z M 72.371094 34.417969 L 73.394531 34.417969 L 73.394531 39.324219 L 72.371094 39.324219 L 72.371094 37.308594 L 70.285156 37.308594 L 70.285156 39.324219 L 69.261719 39.324219 L 69.261719 34.417969 L 70.285156 34.417969 L 70.285156 36.421875 L 72.371094 36.421875 Z M 76.855469 39.390625 C 75.40625 39.390625 74.332031 38.40625 74.332031 36.867188 C 74.332031 35.328125 75.40625 34.351562 76.855469 34.351562 C 78.304688 34.351562 79.375 35.328125 79.375 36.867188 C 79.375 38.40625 78.304688 39.390625 76.855469 39.390625 Z M 76.855469 38.457031 C 77.707031 38.457031 78.359375 37.863281 78.359375 36.867188 C 78.359375 35.878906 77.707031 35.285156 76.855469 35.285156 C 76.007812 35.285156 75.355469 35.878906 75.355469 36.867188 C 75.355469 37.863281 76.007812 38.457031 76.855469 38.457031 Z M 83.179688 35.3125 L 81.347656 35.3125 L 81.347656 36.429688 L 82.972656 36.429688 L 82.972656 37.3125 L 81.347656 37.3125 L 81.347656 38.425781 L 83.179688 38.425781 L 83.179688 39.324219 L 80.316406 39.324219 L 80.316406 34.417969 L 83.179688 34.417969 Z M 84.234375 39.324219 L 84.234375 34.417969 L 86.019531 34.417969 C 87.59375 34.417969 88.371094 35.402344 88.371094 36.871094 C 88.371094 38.339844 87.59375 39.324219 86.019531 39.324219 Z M 85.257812 38.425781 L 85.96875 38.425781 C 86.875 38.425781 87.292969 37.859375 87.292969 36.867188 C 87.292969 35.878906 86.875 35.3125 85.96875 35.3125 L 85.257812 35.3125 Z M 92.191406 35.3125 L 90.363281 35.3125 L 90.363281 36.429688 L 91.984375 36.429688 L 91.984375 37.3125 L 90.363281 37.3125 L 90.363281 38.425781 L 92.191406 38.425781 L 92.191406 39.324219 L 89.332031 39.324219 L 89.332031 34.417969 L 92.191406 34.417969 Z M 95.296875 34.417969 C 96.265625 34.417969 96.863281 35.128906 96.863281 36.003906 C 96.863281 36.894531 96.265625 37.566406 95.296875 37.566406 L 94.269531 37.566406 L 94.269531 39.324219 L 93.246094 39.324219 L 93.246094 34.417969 Z M 95.128906 36.714844 C 95.640625 36.714844 95.878906 36.429688 95.878906 35.988281 C 95.878906 35.566406 95.640625 35.269531 95.128906 35.269531 L 94.269531 35.269531 L 94.269531 36.714844 Z M 95.128906 36.714844 "/>
</g>
</svg>
